<svg xmlns="http://www.w3.org/2000/svg" width="80" height="80" fill="#b5d380"  fill-rule="evenodd" xmlns:v="https://vecta.io/nano"><path d="M31.934 77s4.938-3 3.951-13c-.988-10.333-5.597-12-8.889-13.333-3.621-1-5.597-1.333-8.23-1.333-2.634.333-6.914 2-6.914 2l4.609-2.667s-1.975-.667-2.963-2.333C12.51 45 11.852 44 11.852 44s3.292 3.667 5.926 4 7.901-.333 11.193 1.333C32.593 51 36.872 55 36.872 55s-.329-8.333-2.634-12-2.963-5.667-5.267-7.333C26.337 34.333 24.033 34 24.033 34l5.267 1s-.329-3 0-4.333C29.959 29 30.947 28 30.947 28s-.988 2.333-.988 3.667c.329 1-.329 2.333 1.317 4 1.646 2 5.926 8 6.584 10.333s1.646 8.333 1.646 8.333-.329-6.667 3.292-11.333 6.255-8 6.584-9.333c0-1.667.329-2.667 0-3.333S48.724 28 48.724 28s1.975 2 1.646 4.333c0 2-.329 2.333-.329 2.333s.658-1 2.304-1.333c1.975 0 3.292.333 3.292.333s-4.938 1-5.926 2.333c-.658 1.667-4.609 6-5.597 11-.988 4.667-.988 7.333-.988 7.333s4.938-5.333 9.218-5.667 5.597.333 9.218-1C65.514 46.333 67.16 43 67.16 43s-.329 2.667-1.975 4c-1.646 1-2.634 1.333-2.634 1.333s3.292.333 4.609 1.667 1.317 2.333 1.317 2.333-.329-1.667-5.926-2.667S51.358 50.333 50.37 52c-1.317 1.333-7.243 4-6.914 12.667s3.292 12.667 6.914 13c3.292.333-3.292.333-3.292.333l-3.951 1.667s1.317-2.333-.329-2.333c-1.975 0-8.23 2.667-8.23 2.667s2.634-1.333.988-2c-1.646-.333-6.914 0-6.914 0l3.292-1zm7.901-32c-.988 0-1.646-2.333-1.317-4 0 1 0 .667.329 1.333v-2c.329.333.329.667.658 1 0-1 .329-1 .329-2 .658.667.329 1 .329 2 .329 0 .329-.333.658-.667v1.667l.329-.667C41.482 43 40.494 45 39.835 45zm3.293-5c-.658.333-1.975-1.667-2.304-3.333.329 1 .329.667.658 1 0-.667 0-1-.658-1.667.658 0 .658.333.988.667 0-1 .329-1-.329-2 .988.667.658.667 1.317 1.667 0 0 0-.333.329-.667 0 .667.329 1 .329 1.333.329 0 .329-.667.329-.667.658 1.333.329 3.667-.659 3.667zm-2.634-11.333c-.658.333-2.304-1.333-2.304-3 .329.667.329.333.658.667 0-.667-.329-1-.658-1.667.329 0 .658.667.988.667 0-.667 0-1-.329-2 .658.667.658.667.988 2 .329-.333.329-.667.329-1 .329.667.329 1 .329 1.667.329-.333.329-1 .329-1 .658 1.333.658 3.667-.329 3.667zm0-15c-.658.333-2.305-1.333-2.634-3 .658.667.658.333.988.667-.329-.667-.329-1-.658-1.667.329 0 .658.667.988.667-.329-.667 0-1-.329-2 .658.667.658.667.988 2 .329-.333.329-.667.329-1 .329.667.329 1 .329 1.667.329-.333.329-1 .329-1 .658 1.333.658 3.667-.329 3.667zm-13.169-3C26.667 11 25.021 9 24.691 7.333c.658 1 .658.667.988 1-.329-.667-.329-1-.658-1.667.329 0 .658.333.988.667-.329-1 0-1-.329-2 .658.667.658.667.988 1.667.329 0 .329-.333.329-.667.329.667.329 1 .329 1.333.329 0 .329-.667.329-.667.658 1 .658 3.667-.329 3.667zM15.803 20c-.659.333-1.975-1.333-2.305-3 .329.667.329.333.659 1 0-.667-.329-1.333-.659-2 .659.333.659.667.988 1 0-1 .329-1-.329-2.333.988.667.658 1 .988 2 .329-.333.329-.667.659-1 0 .667.329 1.333.329 1.667l.329-.667c.658 1 .329 3.333-.658 3.333zm-3.622 7c-.988.333-2.305-1.333-2.634-3 .658.667.658.333.988 1-.329-.667-.329-1-.988-2 .658.333.988.667 1.317 1-.329-1 0-1-.329-2 .659.333.659.667.988 1.667.329 0 .329-.667.329-1 .329.667.329 1.333.329 1.667.329 0 .329-.667.329-.667.658 1 .329 3.333-.329 3.333zm11.523-1c-.658.333-1.975-1.667-2.305-3.333.329 1 .329.667.658 1 0-.667 0-1-.658-1.667.658 0 .658.333.988.667 0-1 .329-1-.329-2 .988.667.658.667 1.317 1.667 0 0 0-.333.329-.667 0 .667.329 1 .329 1.333l.329-.667c.659 1.333.329 3.667-.658 3.667zm24.362-6.333c-.659.333-1.975-1.333-2.305-3 .329.667.329.333.658 1 0-.667 0-1-.658-2 .658.333.658.667.988 1 0-1 .329-1-.329-2 .988.333.658.667 1.317 1.667.329 0 0-.667.329-1 0 .667.329 1.333.329 1.667.329 0 .329-.667.329-.667.658 1 .329 3.333-.658 3.333zM16.132 34c-.658.333-1.975-1.667-2.305-3.333.329 1 .329.333.659 1 0-.667-.329-1-.659-1.667.659 0 .659.333.988.667 0-1 .329-1-.329-2 .988.667.658.667 1.317 1.667 0 0 0-.333.329-1 0 1 .329 1.333.329 1.667l.329-.667c.658 1 .329 3.333-.658 3.667zm10.864-17.333c-.988.333-2.305-1.667-2.634-3.333.329 1 .329.333.658 1 0-.667 0-1-.658-1.667.658 0 .658.333.988.667 0-1 .329-1-.329-2 .988.667.658.667 1.317 1.667.329 0 0-.333.329-1 0 1 .329 1.333.329 1.667.329 0 .329-.667.329-.667.659 1 .329 3.333-.329 3.667z"/><path d="M9.876 36.667C8.889 37 7.572 35 7.243 33.333c.658 1 .658.667.988 1-.329-.667-.329-1-.988-1.667.658 0 .988.333 1.317.667-.329-.667 0-1-.329-2 .658.667.658.667.988 1.667.329 0 .329-.333.329-.667.329.667.329 1 .329 1.333.329 0 .329-.667.329-.667.659 1.333.329 3.667-.329 3.667zm10.206 6.666c-.659.333-2.305-1.667-2.305-3.333.329 1 .329.667.659 1 0-.667-.329-1-.659-1.667.329 0 .659.333.988.667 0-1 0-1-.329-2 .658.667.658.667.988 1.667.329 0 .329-.333.329-.667.329.667.329 1 .329 1.333.329 0 .329-.667.329-.667.658 1.333.658 3.667-.329 3.667zm6.914-10.666c-.988 0-2.305-1.667-2.634-3.333.658.667.658.333.988 1-.329-.667-.329-1-.988-2 .658.333.988.667 1.317 1-.329-1 0-1-.329-2 .659.333.659.667.988 1.667.329 0 .329-.333.329-1 .329.667.329 1.333.329 1.667.329 0 .329-.667.329-.667.659 1 .659 3.333-.329 3.667zM19.095 11c-.988.333-2.305-1.667-2.634-3.333.659 1 .659.667.988 1-.329-.667-.329-1-.988-1.667.659 0 .988.333 1.317.667-.329-1 0-1-.329-2 .658.667.329.667.988 1.667.329 0 .329-.333.329-.667.329.667.329 1 .329 1.333.329 0 .329-.667.329-.667.658 1.333.329 3.667-.329 3.667zm-7.572 32.333c-.988 0-2.305-1.667-2.634-3.333.329 1 .658.333.988 1-.329-.667-.329-1-.988-1.667.658 0 .988.333.988.667 0-1 .329-1 0-2 .658.667.329.667.988 1.667.329 0 0-.333.329-1 .329 1 .329 1.333.329 1.667.329 0 .329-.667.329-.667.658 1 .329 3.333-.329 3.667zm24.691-4c-.658-.333-.329-2.667.658-4-.329 1 0 .667 0 1.333.329-.667.658-1 .658-1.667.329.333.329.667.329 1.333.329-.667.658-.667 1.317-1.667 0 1-.329 1-.659 2 .329 0 .329 0 .988-.333l-1.317 1.333c.329 0 .988-.333.988-.333-.329 1.333-2.305 2.667-2.963 2zm-5.268-13c-.658-.333-.329-2.667.988-4-.329 1 0 .667-.329 1.333.659-.667.659-1 .988-1.667.329.333 0 .667 0 1.333.658-.667.988-.667 1.317-1.667 0 1 0 1-.658 2 .329 0 .658-.333.988-.333-.329.667-.658 1-.988 1.333.329 0 .658-.333.658-.333-.329 1.333-2.305 2.667-2.963 2zm20.741 6c-.658-.667 0-2.667.988-4-.329.667 0 .667-.329 1 .658-.333.658-.667.988-1.667.329.667 0 1 0 1.333.658-.667.988-.333 1.317-1.333.329 1 0 .667-.658 1.667.329.333.658 0 .988 0-.329.667-.658 1-.988 1 .329.333.658 0 .658 0-.329 1.333-2.305 2.667-2.963 2z"/><path d="M67.49 42.333c-.658-.333-.329-2.667.988-4-.329 1 0 .667-.329 1.333.658-.667.658-1 .988-1.667.329.333 0 .667 0 1.333.658-.667.988-.667 1.317-1.667 0 1 0 1-.659 2 .329 0 .659-.333.988-.333-.329.667-.658 1-.988 1.333.329 0 .659-.333.659-.333-.329 1.333-2.305 2.667-2.963 2zM62.222 34c-.658-.667-.329-3 .988-4-.329.667 0 .667-.329 1 .659-.333.659-.667.988-1.667.329.667 0 1 0 1.333.658-.667.988-.667 1.317-1.667.329 1 0 1-.658 2 .329.333.658 0 .988 0-.329.333-.659 1-.988 1 .329.333.658 0 .658 0-.329 1-2.304 2.667-2.963 2zm-16.79 15.333c-.658-.333-.329-2.667.988-3.667-.658.667-.329.333-.329 1 .329-.333.658-.667.988-1.667v1.333c.659-.667.659-.667 1.317-1.667 0 1-.329 1-.658 2 .329.333.329 0 .988-.333-.658.667-.658 1-.988 1.333 0 .333.658 0 .658 0-.329 1-2.305 2.333-2.963 1.667zm21.07-22c-.658-.333 0-2.667.988-4-.329 1 0 .667-.329 1.333.659-.667.659-1 .988-1.667.329.333 0 .667 0 1 .658-.667.988-.333 1.317-1.333.329 1 0 1-.659 2 .329 0 .659-.333.988-.333-.329.667-.659 1-.988 1.333.329 0 .659-.333.659-.333-.329 1.333-2.305 2.667-2.963 2zm-13.169-6c-.659-.333-.329-2.667.658-4-.329 1 0 .667 0 1.333.329-.667.658-1 .658-2 .329.667.329 1 .329 1.333.329-.667.658-.333 1.317-1.333 0 1-.329 1-.658 2 .329 0 .329-.333.988-.333-.659.667-.988 1-1.317 1 .329.333.988 0 .988 0-.329 1.333-2.304 2.667-2.963 2zm6.914-10.666c-.988-.333-.329-2.667.658-4-.329 1 0 .667-.329 1.333.658-.667.658-1 .988-1.667.329.333 0 .667 0 1 .659-.667.988-.333 1.317-1.333.329 1 0 1-.658 2 .329 0 .658-.333.988-.333-.329.667-.658 1-.988 1.333.329 0 .988-.333.988-.333-.658 1.333-2.305 2.667-2.963 2zm1.317 4.666c-.988-.667-.329-3 .658-4-.329.667 0 .667 0 1 .329-.333.329-.667.658-1.667.329.667 0 1 0 1.333.658-.667.988-.333 1.317-1.333.329 1 0 .667-.658 1.667.329.333.658 0 .988 0-.329.667-.658 1-.988 1 .329.333.988 0 .988 0-.658 1-2.305 2.667-2.963 2zM33.91 50c-.659.333-2.634-1-3.292-2.333.658.667.329.333.988.667-.329-.667-.659-1-1.317-1.667.658 0 .988.333 1.317.667-.329-1-.329-1-.988-2 .988.333.658.667 1.646 1.333v-1c.329.667.658 1 .658 1.333.329 0 .329-.667.329-.667.988 1 1.317 3 .659 3.667z"/><path d="M44.115 23.667c-.658.667-2.634-.667-3.292-2.333.659.667.329.333.988.667a2.58 2.58 0 0 0-1.317-1.333c.658 0 .988.333 1.317.333-.329-.667-.329-1-.988-1.667.988 0 .659.333 1.646 1.333v-1c.329.667.658 1 .658 1.333.329-.333.329-.667.329-.667.988.667 1.317 3 .658 3.333zM38.189 8.333c-.658.333-2.634-1-3.292-2.333.658.667.658.333.988.667-.329-.667-.329-1-.988-1.667.329 0 .658.333.988.667-.329-1 0-1-.658-2 .658.333.658.667 1.317 1.333.329 0 0-.333.329-1 .329.667.658 1 .658 1.333.329 0 0-.667 0-.667.988 1 1.646 3 .658 3.667zM22.058 29c-.659.667-2.634-.667-3.292-2.333.658.667.329.333.988.667L18.436 26c.658 0 .658.333 1.317.333-.659-.667-.329-1-.988-1.667.988.333.658.333 1.646 1.333v-1c.329.667.658 1 .658 1.333.329 0 0-.667 0-.667 1.317.667 1.646 3 .988 3.333zm-4.61-14c-.658.333-2.634-1-3.292-2.333.659.667.659.333.988.667-.329-.667-.329-1-.988-1.667.329 0 .659.333.988.667-.329-1 0-1-.658-2 .658.333.658.667 1.317 1.333.329 0 .329-.333.329-1 .329.667.658 1 .658 1.333.329 0 0-.667 0-.667.988 1 1.646 3.333.658 3.667zm26.996 19.333c-.658.333-2.634-1-3.292-2.333.658.667.658.333.988.667-.329-.667-.658-1-1.317-1.667.658 0 .988.333 1.317.667-.329-1 0-1-.658-2C42.14 30 42.14 30 42.798 31c.329 0 0-.333.329-1 .329.667.329 1.333.659 1.667v-1c.988 1 1.317 3.333.658 3.667zm2.305-22.666c-.988 0-1.975-2-1.646-3.667 0 1 0 .333.329 1 0-.667 0-1-.329-2 .658.333.658.667.988 1 0-.667.329-.667 0-2 .658.667.329 1 .658 2 .329 0 .329-.333.658-.667v1.333c.329 0 .329-.667.329-.667.658 1.333 0 3.667-.988 3.667zM21.07 17.333c-.988.333-1.975-1.667-1.975-3.667.329 1 .329.667.659 1.333 0-.667 0-1.333-.329-2 .659.333.659.667.988 1v-2c.658.667.329.667.658 2 .329-.333.329-.667.659-1v1.667l.329-.667c.329 1.333-.329 3.667-.988 3.333zM56.626 47c-.658.333-1.975-1.667-1.646-3.333 0 .667 0 .333.329 1 0-.667 0-1.333-.329-2 .658.333.658.667.988 1 0-1 .329-1 0-2 .658.667.329.667.658 2 .329-.333.329-.667.658-1v1.667c.329 0 .329-.667.329-.667.658 1.333 0 3.667-.988 3.333zm10.205 5.333c.658 0 1.646 2.333.988 4 0-1 0-.667-.329-1 0 .667 0 1 .329 1.667-.658-.333-.658-.667-.988-1 0 1-.329 1-.329 2-.659-.667-.329-1-.329-2-.329 0-.329.333-.658.667 0-.667 0-1.333.329-1.667-.329 0-.658.667-.658.667-.329-1.333.658-3.333 1.646-3.333zm-53.333 7.333c.658 0 1.646 2.333.988 4 0-1 0-.667-.329-1.333v2c-.329-.333-.329-.667-.658-1 0 .667-.329.667-.329 2-.659-1-.329-1-.329-2-.329 0-.329.333-.658.667 0-.667 0-1.333.329-1.667-.329 0-.658.667-.658.667-.329-1.333.658-3.667 1.646-3.333zm53.333 0c.658 0 1.646 2.333.988 4 0-1 0-.667-.329-1.333 0 .667 0 1.333.329 2-.658-.333-.658-.667-.988-1 0 .667-.329.667-.329 2-.659-1-.329-1-.329-2-.329 0-.329.333-.658.667 0-.667 0-1.333.329-1.667-.329 0-.658.667-.658.667-.329-1.333.658-3.667 1.646-3.333zm-60.247-2c.658.333 0 2.667-.988 4 .329-1 0-.667.329-1.333-.658.667-.658 1-.988 1.667-.329-.333 0-1 0-1.333-.658.667-.988.667-1.646 1.667 0-1 .329-1 .988-2-.329-.333-.658 0-.988.333.329-.667.658-1 .988-1.333-.329-.333-.658.333-.658.333.329-1.333 2.305-2.667 2.963-2zm53.663-.332c.659.667 0 2.667-.988 4 .329-1 0-.667.329-1.333-.658.667-.988 1-.988 1.667-.329-.333 0-.667 0-1.333-.658.667-.988.667-1.646 1.667 0-1 .329-1 .988-2-.329 0-.658 0-.988.333.329-.667.659-1 .988-1.333-.329 0-.658.333-.658.333.329-1.333 2.304-2.667 2.963-2zM69.794 52c.329-.333 2.634.667 3.292 2-.658-.333-.658 0-.988-.333L73.416 55c-.658 0-.988-.333-1.317-.333.658.667.329 1 .988 1.667C72.099 56 72.428 56 71.44 55v1c-.329-.333-.658-1-.658-1.333-.329.333 0 1 0 1-1.317-1-1.975-3-.988-3.667zM33.909 36.333c-.988.333-1.975-1.667-1.975-3.333.329.667.329.333.658 1-.329-.667-.329-1-.658-2 .658.333.658.667.988 1 0-1 .329-1 0-2 .658.667.329.667.658 1.667.329 0 .329-.333.658-.667v1.667c.329 0 .329-.667.329-.667.659 1 .329 3.333-.658 3.333zM29.301 23c-.658.333-1.975-1.667-1.975-3.333.329.667.329.333.658 1 0-.667 0-1-.658-2 .658.333.658.667.988 1 0-1 .329-1 0-2 .659.667.659.667.988 2 .329-.333.329-.667.329-1 .329.667.329 1.333 0 1.667.329 0 .659-.667.659-.667.329 1 0 3.333-.988 3.333z"/><path d="M19.424 23.333c-.988 0-1.975-2-1.975-3.667.329 1 .329.667.658 1 0-.667-.329-1-.658-1.667.658 0 .658.333.988.667 0-.667.329-1 0-2 .659.667.329.667.659 2 .329 0 .329-.667.658-1v1.667c.329 0 .329-.667.329-.667.659 1.333.329 3.667-.658 3.667zM17.119 24c-.329.667-2.634.333-3.621-1 .659.333.329 0 .988.333-.329-.667-.988-.667-1.646-1 .658-.333.988 0 1.317 0-.659-.667-.329-1-1.317-1.333.988 0 .658 0 1.646.667.329-.333 0-.667 0-1 .658.333.988.667.988 1 .329 0 0-.667 0-.667.988.333 2.305 2.333 1.646 3zM8.56 26c-.658.667-2.963.333-3.951-1 .658.333.658.333.988.333-.329-.333-.658-.667-1.646-1 .658-.333.988 0 1.317 0-.658-.667-.329-.667-1.317-1.333.988 0 .988 0 1.975.667 0-.333-.329-.333-.329-1 .658.667.988 1 1.317 1L6.584 23c1.317.667 2.634 2.667 1.975 3zm3.621 5.333c-.329.667-2.634.333-3.951-1 .988.333.658 0 1.317.333-.329-.667-.988-.667-1.646-1 .658-.333.988 0 1.317 0-.658-.667-.658-1-1.646-1.667 1.317 0 .988.333 1.975 1 .329-.333 0-.667 0-1l.988 1c.329-.333 0-.667 0-.667.988.333 2.304 2.333 1.646 3zm0-12c-.329.667-2.634.333-3.951-1 .988.333.658 0 1.317.333-.329-.333-.988-.667-1.646-1 .658-.333.988 0 1.317 0-.658-.667-.658-1-1.646-1.333 1.317 0 .988 0 1.975.667.329-.333 0-.667 0-1l.988 1c.329 0 0-.667 0-.667.988.333 2.304 2.333 1.646 3zM67.161 19c-.329-.667 1.317-2.333 2.963-2.667-.658.667-.329.667-.988 1 .659-.333 1.317-.333 1.975-1-.329.667-.659 1-.988 1.333.988-.333.988 0 1.975-.667-.329 1-.658.667-1.646 1.333.329.333.659 0 .988.333-.659.333-1.317.333-1.646.333 0 .333.658.333.658.333-.988.667-3.292.667-3.292-.333zm4.938 17.667C71.77 36 73.745 34.333 75.391 34c-.988.667-.659.667-.988 1 .659-.333.988-.333 1.646-1 0 .667-.329 1-.658 1 .988 0 .988.333 1.975-.333-.658 1-.658.667-1.646 1.333 0 .333.329 0 .658.333-.658.333-.988.333-1.317.333 0 .333.658.333.658.333-1.317.667-3.621.667-3.621-.333zm1.317 10c-.329-.667 1.317-2 2.963-2.333-.658.333-.329.333-.988.667.658 0 .988-.333 1.975-.667-.329.667-.658.667-.988 1 .988 0 .988 0 1.975-.333-.329 1-.658.667-1.646 1 0 .333.658.333.988.333-.658.333-1.317.333-1.646.333 0 .333.658.333.658.333-.988 1-3.292.667-3.292-.333zm1.317 8c.329-.667 2.634-.333 3.621 1-.658-.333-.658 0-.988-.333.329.333.658.667 1.646 1-.659.333-.988 0-1.317 0 .658.667.329.667 1.317 1.333-.988 0-.988 0-1.975-.667 0 .333.329.667.329 1-.658-.333-.988-.667-.988-1-.329 0 0 .667 0 .667-1.317-.333-2.305-2.333-1.646-3zm-1.317 3c.658-.333 2.305 1 2.634 2.667-.329-.667-.329-.333-.658-.667 0 .667.329 1 .988 1.667-.658-.333-.988-.667-1.317-.667.329.667.329 1 .658 2C75.063 62 75.063 62 74.404 61c-.329 0 0 .667 0 1-.329-.667-.658-1.333-.658-1.667-.329.333-.329 1-.329 1-.659-1-.988-3.333 0-3.667zm-4.28-1.333C69.794 56 71.44 58 71.44 59.667c-.329-.667-.329-.333-.658-1 0 .667 0 1 .658 2-.658-.333-.658-.667-.988-1 0 1-.329 1 0 2C69.794 61 70.123 61 69.465 60c0 0 0 .333-.329.667 0-.667-.329-1 0-1.333-.329 0-.659.667-.659.667-.658-1.333-.329-3.667.659-3.667zm-5.926.332c.658-.333 1.646 2 1.646 3.667-.329-1-.329-.667-.658-1.333 0 .667 0 1.333.329 2-.658-.333-.658-.667-.988-1 0 1-.329 1 0 2-.658-.667-.329-.667-.658-2-.329.333-.329.667-.658 1v-1.667l-.329.667c-.329-1.333.329-3.667 1.317-3.333z"/><path d="M59.589 51.333c.329.667-1.646 2.333-3.292 2.333.988-.333.329-.333.988-.667-.658 0-.988 0-1.975.667.329-.667.658-.667.988-1-.988 0-.988-.333-1.975 0 .659-.667.659-.667 1.646-1 0-.333-.329-.333-.658-.333.658-.333.988-.333 1.646-.333-.329 0-.988-.333-.988-.333 1.317-.667 3.621-.333 3.621.667zm-1.317 4.668c.329.667-1.646 2-3.292 2.333.658-.333.329-.333.988-.667-.658 0-.988 0-1.975.333l.988-1c-.988.333-.988 0-1.975.333.658-.667.658-.667 1.646-1 0-.333-.329-.333-.658-.333.658-.333.988-.333 1.317-.333 0-.333-.659-.333-.659-.333 1.317-.667 3.621-.333 3.621.667zm4.609-4.334c.658.333.658 2.667-.329 4 .329-1 0-.667 0-1.333-.329.667-.329 1-.329 2-.329-.667-.329-1-.329-1.333-.658.667-.658.667-.988 1.667-.329-1-.329-1 .329-2-.329 0-.658 0-.988.333.329-.667.658-1 .658-1.333l-.658.333c.329-1.333 1.975-3 2.634-2.333zM66.831 48c0-.667 1.975-2 3.621-2-.988.333-.658.333-1.317.667.988 0 1.317 0 1.975-.333l-.988 1h1.975c-.658.667-.658.333-1.646.667 0 .333.329.333.658.333-.658.333-.988.333-1.646.333l.659.333c-.988.333-3.292 0-3.292-1zm5.926 3c-.329-.667 1.646-2 3.292-2-.658.333-.329.333-.988.667.658 0 .988 0 1.975-.333-.329.333-.658.667-.988.667.988.333.988.333 1.975.333-.658.667-.658.333-1.975.667.329.333.658.333.988.333-.658.333-1.317.333-1.646.333l.658.333c-1.317.333-3.621 0-3.292-1zm-21.728-3.333c-.658-.333-.658-2.667 0-4v1c.329-.333.658-1 .658-1.667.329.333.329.667.329 1.333.329-1 .658-1 .988-2 .329 1 0 1-.329 2 .329.333.659 0 .988-.333-.329.667-.659 1-.659 1.333s.659-.333.659-.333c-.329 1.333-1.646 3-2.634 2.667zM27.984 48c-.988.333-2.305-1.667-2.305-3.333.329 1 .329.667.658 1 0-.667-.329-1-.658-1.667.658 0 .658.333.988.667 0-1 0-1-.329-2 .988.667.658.667.988 1.667.329 0 .329-.333.329-.667.329.667.329 1 .329 1.667.329-.333.329-1 .329-1 .658 1.333.329 3.667-.329 3.667zm-5.268-.333c-.658 0-1.317-2.333-.988-4 0 1 .329.667.329 1.333v-2c.329.333.329.667.658 1 .329-.667.329-.667.329-2 .658 1 .329 1 .329 2.333.329 0 .659-.667.988-1-.329 1-.329 1.333-.329 1.667l.329-.333c.329 1-.659 3.333-1.646 3z"/><path d="M18.436 47c-.659.667-2.305-1-2.634-2.667.329.667.329.333.658.667 0-.667-.329-1-.988-1.667.658.333.988.667 1.317.667-.329-.667 0-1-.659-2 .988.667.659.667 1.317 1.667.329 0 .329-.333.329-1 .329.667.329 1.333.329 1.667.329 0 .329-.667.329-.667.988 1 .988 3.333 0 3.333zm-4.609-3.667c-.988 0-1.317-2.333-.659-4v1.333c.329-.667.329-1.333.329-2 .329.333.329.667.659 1 .329-.667.329-.667.658-1.667.329.667 0 .667 0 2 .329 0 .329-.333.659-.667 0 .667 0 1.333-.329 1.667.329 0 .659-.667.659-.667 0 1.333-1.317 3.333-1.975 3zM12.84 38c-.988 0-1.975-2.333-1.646-4 .329 1 .329.667.658 1.333 0-.667 0-1.333-.329-2 .329.333.658.667.658 1 .329-1 .329-1 .329-2 .658.667.329.667.658 2 .329 0 .329-.333.658-.667 0 .667 0 1-.329 1.333.329 0 .658-.333.658-.333.329 1-.658 3.333-1.317 3.333zm19.424 5.333C31.934 44 29.63 44 28.313 43c.988.333.659 0 1.317 0-.658-.333-.988-.333-1.975-.667.658-.333.988 0 1.317 0-.659-.667-.659-1-1.646-1.333.988 0 .988 0 1.975.333 0 0-.329-.333-.329-.667.658.333.988.333 1.317.667 0-.333-.329-.667-.329-.667 1.317.333 2.963 2 2.305 2.667zm-2.634-4.666c.329.667-1.646 2-3.292 2 .658-.333.329-.333.988-.667-.658 0-.988 0-1.975.333l.988-1h-1.975c.658-.667.658-.333 1.975-.667-.329-.333-.659-.333-.988-.667h1.646l-.658-.333c1.317-.333 3.621 0 3.292 1zM25.021 35c.658.667 0 2.667-1.317 4 .658-1 .329-.667.329-1.333-.329.667-.658 1-.988 1.667-.329-.667 0-1 0-1.333-.659.667-.659.333-1.317 1.333 0-1 0-1 .658-1.667 0-.333-.329 0-.988 0 .658-.667.988-1 1.317-1-.329-.333-.658 0-.658 0 .329-1.333 2.305-2.333 2.963-1.667zm-2.634-.667c.329 1-1.646 2.333-3.292 2.333.658-.333.329-.333.988-.667-.658 0-1.317 0-1.975.333l.988-1c-.988 0-.988 0-1.975.333.658-1 .658-.667 1.646-1 0-.333-.329-.333-.659-.333.659-.333.988-.333 1.317-.333 0-.333-.658-.333-.658-.333 1.317-.667 3.621 0 3.621.667zM24.362 33c-.658.667-2.634 0-3.951-1 .988.333.658 0 1.317.333-.659-.667-.988-.667-1.646-1 .329-.333.658 0 1.317 0-.659-.667-.659-1-1.646-1.667.988 0 .988.333 1.975 1 0-.333 0-.667-.329-1 .658.333.988.667 1.317 1 0-.333-.329-.667-.329-.667 1.317.333 2.634 2.333 1.975 3zm5.597-25c-.988 0-1.975-2-1.646-3.667.329.667.329.333.659 1 0-.667 0-1-.329-2 .659.333.659 1 .659 1.333.329-1 .658-1 .329-2.333.658 1 .658 1 .658 2 .329 0 .329-.333.659-.667 0 1 0 1.333-.329 1.667.329 0 .658-.667.658-.667C31.605 6 30.617 8.333 29.959 8zm-7.572 4c-.658 0-1.646-2-1.317-3.667 0 .667.329.333.329 1 .329-.667.329-1 0-2 .329.333.329.667.659 1 .329-.667.329-.667.329-2 .658 1 .329 1 .658 2 .329 0 .329-.333.329-.667.329.667 0 1.333 0 1.667.329 0 .658-.667.658-.667.329 1.333-.658 3.667-1.646 3.333zm34.897-.333c-.659 0-1.646-2.333-1.317-4 0 1 .329.667.329 1.333.329-.667 0-1.333 0-2 .329.333.329.667.659 1 .329-1 .329-1 .329-2 .658.667.329 1 .329 2 .329 0 .658-.333.658-.667V9c.329 0 .329-.667.329-.667.329 1.333-.329 3.333-1.317 3.333zM50.7 23.333c-.658.333-1.646-2-1.317-3.667 0 1 .329.667.329 1V19c.329.333.329.667.658 1 0-1 .329-1 .329-2 .659.667.329.667.329 2 .329 0 .329-.333.658-.667v1.333c.329 0 .329-.333.329-.333.329 1-.329 3.333-1.317 3z"/><path d="M32.263 20c-.988 0-1.646-2-1.317-3.667 0 1 0 .667.329 1 0-.667 0-1-.329-1.667.658.333.658.667.988 1 0-1 .329-1 .329-2 .329.667.329.667.329 2 .329 0 .329-.667.658-1 0 1 0 1.333-.329 1.667.329 0 .658-.667.658-.667.329 1.333-.329 3.667-1.317 3.333zm28.313 2.667c-.988 0-1.646-2.333-1.646-4 .329 1 .329.667.658 1.333 0-.667 0-1.333-.329-2 .658.333.658.667.988 1 0-1 .329-1 0-2 .659.667.659.667.659 2 .329 0 .329-.333.658-.667 0 .667 0 1-.329 1.333.329.333.658-.333.658-.333.329 1.333-.658 3.333-1.317 3.333zM50.37 8c-.988.333-2.304-1.333-2.634-3 .329.667.329.333.658.667 0-.667-.329-1-.658-1.667.329 0 .658.333.988.667-.329-.667 0-1-.329-2 .658.667.658.667.988 1.667.329 0 .329-.333.329-1 .329 1 .329 1.333.329 1.667.329 0 .329-.667.329-.667.988 1 .658 3.333 0 3.667zM25.679 21.333c-.658.333-2.304-1.333-2.634-3 .329.667.329.333.658.667 0-.667-.329-1-.658-1.667.329 0 .658.333.988.667-.329-1 0-1-.329-2 .658.667.658.667.988 1.667.329 0 .329-.333.329-1 .329 1 .329 1.333.329 1.667.329 0 .329-.667.329-.667.988 1 .658 3.333 0 3.667zM6.914 29.334c0 .667-1.975 2-3.621 2 .988-.333.658-.333 1.317-.667-.658 0-1.317 0-1.975.333.329-.667.658-.667.988-1H1.646c.658-.667.658-.333 1.646-.667 0-.333-.329-.333-.658-.667H4.28c0-.333-.658-.333-.658-.333.988-.667 3.292 0 3.292 1zM7.243 40c0 .667-1.975 2-3.621 1.667.988 0 .658-.333.988-.333-.658 0-.988 0-1.646.333 0-.667.658-.667.658-1-.658 0-.658-.333-1.975 0 .658-.667.988-.333 1.975-.667 0-.333-.329-.333-.658-.667H4.28C4.28 39 3.622 39 3.622 39c1.317-.667 3.621 0 3.621 1zm-.329-3c-.329.667-2.634.667-3.951-.333h.988c-.33-.334-.659-.667-1.646-.667.658-.333.988-.333 1.317-.333C2.963 35 2.963 35 1.975 34.333c.988 0 .988.333 1.975.667 0-.333-.329-.667-.329-1 .658.333.988.667 1.317 1 0-.333-.329-.667-.329-.667 1.317.333 2.963 2 2.305 2.667zm-.988 9.667c0 .667-2.305 1-3.951.333h1.317c-.658-.333-.988-.333-1.975-.333.658-.333.988-.333 1.317-.667-.658-.333-.658-.333-1.975-.667.988-.333.988-.333 2.305 0 0-.333-.329-.333-.658-.667.658 0 .988.333 1.317.333s-.329-.667-.329-.667c1.317 0 3.292 1.667 2.634 2.333zm5.268-1.334c0 .667-2.305 1-3.951.333.988 0 .658-.333 1.317-.333-.658 0-.988-.333-1.975-.333.329-.333.658-.333 1.317-.333-.988-.333-.988-.667-1.975-.667.988-.667.988-.333 1.975 0 0-.333-.329-.667-.329-1 .658.333.988.333 1.317.667 0-.333-.329-.667-.329-.667 1.317 0 2.963 1.333 2.634 2.333zm1.316 3C12.51 49 10.535 50 8.889 50c.658-.333.329-.333.988-.667-.658 0-.988 0-1.975.333.329-.333.658-.667.988-.667-.658-.333-.658-.333-1.975-.333.658-.667.988-.333 1.975-.667 0-.333-.329-.333-.658-.333.658-.333.988-.333 1.317 0 0-.333-.329-.667-.329-.667.988-.333 3.292.333 3.292 1.333zm-5.596 2.666c0 .667-1.975 2-3.621 1.667.988-.333.658-.333.988-.667-.658 0-.988.333-1.646.333 0-.333.658-.333.988-.667-.988 0-.988-.333-1.975-.333.658-.667.658-.333 1.646-.667 0 0-.329-.333-.658-.333H4.28c0-.333-.658-.667-.658-.667 1.317-.333 3.292.333 3.292 1.333zM4.938 55c.329.667-1.317 2.333-2.963 2.667.988-.333.658-.333.988-.667-.658 0-.988.333-1.646.667 0-.333.329-.667.658-1C.988 57 .988 56.667 0 57c.658-.667.658-.667 1.646-1 0-.333-.658-.333-.988-.333.658-.333 1.317-.333 1.646-.333 0-.333-.658-.333-.658-.333.988-1 3.292-1 3.292 0zm6.256-3.333c.659.667-.988 2.667-2.305 3.333.658-.667.329-.667.658-1-.658.333-.988.333-1.646 1 0-.667.329-.667.658-1.333-.988.333-.988.333-1.975 1 .329-1 .658-1 1.646-1.667h-.988c.658-.333.988-.667 1.317-.667C8.56 52 7.901 52 7.901 52c.988-.667 3.292-1 3.292-.333zm-.659 4.666c.658 0 .988 2.333.329 4V59c-.329.667-.329 1.333-.329 2-.329-.333-.329-.667-.658-1.333l-.658 2c-.329-1-.329-1 0-2-.329 0-.329.333-.658.667 0-.667.329-1.333.329-1.667-.329 0-.658.667-.658.667 0-1.333 1.317-3.333 2.305-3zM13.169 52c.988-.333 1.975 2 1.646 3.667-.329-1-.329-.667-.658-1 0 .667 0 1 .329 1.667-.658-.333-.658-.667-.988-1 0 1-.329 1 0 2-.659-.667-.659-.667-.659-2-.329 0-.329.333-.658.667 0-.667 0-1 .329-1.333-.329 0-.658.333-.658.333-.329-1 .658-3.333 1.317-3zm2.963-1c.659-.333 2.634 1 3.292 2.333-.658-.667-.329-.333-.988-.667.329.667.659 1 1.317 1.667-.658 0-.988-.333-1.317-.333.329.667.329.667.988 1.667-.988-.333-.988-.333-1.646-1.333-.329.333 0 .667 0 1-.329-.667-.658-1-.658-1.333-.329 0-.329.667-.329.667-.988-1-1.317-3.333-.659-3.667z"/><path d="M21.399 50.666c.658-.333 1.975 1.667 1.975 3.333-.329-.667-.329-.333-.658-1 0 .667.329 1.333.658 2-.658-.333-.658-.667-.988-1 0 1-.329 1 0 2-.658-.667-.329-.667-.658-1.667-.329 0-.329.333-.658.667v-1.667c-.329 0-.329.667-.329.667-.659-1-.329-3.333.658-3.333zm-5.596 6.001c.988 0 2.304 1.667 2.304 3.667-.329-1-.658-.667-.658-1.333 0 1 0 1.333.329 2-.658-.333-.658-.667-.988-1 0 1 0 1 .329 2.333-.988-.667-.659-1-.988-2-.329 0-.329.333-.658.667v-1.333c-.329 0-.329.667-.329.667-.659-1.333 0-3.667.658-3.667zm3.621.333c.659-.333 2.305 1.333 2.634 3-.658-.667-.658-.333-.988-.667.329.667.329 1 .988 1.667-.658-.333-.988-.667-1.317-.667.329.667 0 1 .659 2-.988-.667-.659-.667-1.317-1.667-.329 0 0 .333-.329.667-.329-.667-.329-1-.329-1.333-.329 0-.329.667-.329.667-.658-1-.658-3.333.329-3.667zm2.963-.333c.658-.333 2.634.333 3.621 2-.659-.667-.659-.333-.988-.667a2.58 2.58 0 0 0 1.317 1.333c-.658 0-.988 0-1.317-.333.659 1 .329 1 1.317 1.667-.988 0-.988-.333-1.646-1-.329.333 0 .667 0 1-.658-.667-.988-1-.988-1.333-.329.333 0 1 0 1-1.317-1-1.975-3-1.317-3.667zm49.382-34c-.658-.333-.329-2.667.988-4-.329 1 0 .667-.329 1.333.658-.667.658-1 .988-1.667.329.333 0 .667 0 1 .658-.667.988-.333 1.317-1.333.329 1 0 1-.659 2 .329 0 .659-.333.988-.333-.329.667-.659 1-.988 1 .329.333.659 0 .659 0-.329 1.333-2.305 2.667-2.963 2zm-30.617-14c-.658-.667 0-2.667.988-4-.329.667 0 .667-.329 1 .658-.333.658-.667.988-1.667.329.667 0 1 0 1.333.659-.667.988-.333 1.317-1.333.329 1 0 .667-.658 1.667.329.333.658 0 .988 0-.329.667-.658 1-.988 1 .329.333.658 0 .658 0-.329 1.333-2.305 2.667-2.963 2zm10.864.666c-.658-.333-.329-2.667.658-4-.329 1 0 .667 0 1.333.329-.667.659-1 .659-1.667.329.333.329.667.329 1.333.329-.667.658-.667 1.317-1.667 0 1-.329 1-.658 2 .329 0 .329-.333.988-.333l-1.317 1.333c.329 0 .988-.333.988-.333-.329 1.333-2.305 2.667-2.963 2zm11.194 10c-.658-.333-.329-2.667.988-4-.658 1-.329.667-.329 1.333.329-.333.658-1 .988-1.667v1.333c.658-.667.658-.667 1.317-1.667 0 1-.329 1-.658 2 .329.333.329 0 .988-.333-.658.667-.658 1-.988 1.333 0 .333.658-.333.658-.333-.329 1.333-2.304 2.667-2.963 2zM51.358 16c-.658-.333-.329-2.667.988-3.667-.329.667 0 .333-.329 1 .329-.333.658-.667.988-1.667.329.667 0 1 0 1.333.658-.667.988-.667 1.317-1.667 0 1 0 1-.658 2 .329.333.658 0 .988-.333-.329.667-.658 1-.988 1.333.329.333.658 0 .658 0-.329 1-2.304 2.333-2.963 1.667zm-15.144 3c-.658-.333-.329-2.667.988-4-.329 1-.329.667-.329 1.333.329-.667.659-1 .988-1.667v1c.658-.667.658-.333 1.317-1.333 0 1 0 1-.658 2 .329 0 .658-.333.988-.333-.329.667-.658 1-.988 1.333l.658-.333c-.329 1.333-2.305 2.667-2.963 2zm14.157 9c-.658-.333-.329-2.667.988-4-.329 1-.329.667-.329 1.333.329-.667.658-1 .988-1.667v1c.658-.667.658-.333 1.317-1.333 0 1 0 1-.658 2 .329 0 .658-.333.988-.333-.329.667-.659 1-.988 1.333l.658-.333c-.329 1.333-2.304 2.667-2.963 2zm6.584 1.333c-.658-.667-.329-2.667.659-4-.329.667 0 .667 0 1 .329-.333.658-.667.658-1.667.329.667 0 1 .329 1.333.329-.667.658-.333 1.317-1.333 0 1-.329.667-.659 1.667 0 .333.329 0 .659 0-.329.667-.659 1-.988 1 .329.333.988 0 .988 0-.659 1.333-2.304 2.667-2.963 2zm12.181 7c-.659-.333-.329-2.667.988-4-.329 1 0 .667-.329 1.333.658-.667.658-1 .988-1.667.329.333 0 .667 0 1.333.659-.667.988-.667 1.317-1.667 0 1 0 1-.658 2 .329 0 .658-.333.988-.333-.329.667-.658 1-.988 1.333.329 0 .658-.333.658-.333-.329 1.333-2.304 2.667-2.963 2zm-10.206 6c-.658-.333-.329-2.667.658-4-.329 1 0 .667 0 1.333.329-.667.658-1 .658-1.667.329.333.329.667.329 1 .329-.667.658-.333 1.317-1.333 0 1-.329 1-.658 2 0 0 .329-.333.658-.333-.329.667-.658 1-.988 1.333.329 0 .988-.333.988-.333-.658 1.333-2.304 2.667-2.963 2z"/><path d="M69.136 44.667c-.329-1 1.646-2.333 3.292-2.667-.988.333-.658.333-.988.667.659 0 .988-.333 1.646-.667 0 .667-.329.667-.658 1 .988 0 .988 0 1.975-.333-.658 1-.658.667-1.646 1 0 .333.329.333.658.667-.658 0-.988.333-1.317.333l.658.333c-.988.667-3.292.333-3.621-.333zm3.621-14.334c-.329-1 1.646-2.333 3.292-2.667-.988.333-.658.333-.988.667.658 0 .988-.333 1.646-.667 0 .667-.329.667-.658 1 .988 0 .988.333 1.975-.333-.658 1-.658.667-1.646 1 0 .333.329.333.988.667-.988 0-1.317.333-1.646.333l.658.333c-.988.667-3.292.333-3.621-.333zm-6.255.334C66.173 30 68.148 28.333 69.794 28c-.988.667-.658.667-.988 1 .659-.333.988-.333 1.646-1 0 .667-.329 1-.658 1.333.988-.333.988 0 1.975-.667-.658 1-.658.667-1.646 1.333 0 .333.329 0 .658.333-.658.333-.988.333-1.317.333 0 .333.658.333.658.333-.988.667-3.621.667-3.621-.333zm5.597-5c-.329-.667 1.646-2.333 3.292-2.333-.988.333-.659.333-.988.667.659 0 .988-.333 1.646-.667 0 .333-.329.667-.658 1 .988-.333.988 0 1.975-.333-.658.667-.658.667-1.646 1 0 .333.329.333.988.333-.988.333-1.317.333-1.646.333 0 .333.658.333.658.333-.988.667-3.292.667-3.621-.333zM74.733 41c-.329-.667 1.317-2.333 2.963-2.333-.658.333-.329.333-.988.667.658 0 1.317-.333 1.975-.667l-.988 1c.988-.333.988 0 2.305-.333-.658.667-.988.667-1.975 1 .329.333.659.333.988.333-.658.333-1.317.333-1.646.333 0 .333.988.333.988.333C77.037 42 74.733 42 74.733 41zm-13.828 5.667c-.658-.333-.329-2.667.988-4-.658 1-.329.667-.329 1.333.329-.667.658-1 .988-1.667v1.333C63.21 43 63.21 43 63.868 42c0 1-.329 1-.659 2 .329 0 .329-.333.988-.333-.658.667-.658 1-.988 1.333l.659-.333c-.329 1.333-2.305 2.667-2.963 2zM32.922 30c-.658-.333-.329-2.667.658-4-.329 1 0 .667 0 1.333.329-.667.658-1 .658-1.667.329.333.329.667.329 1 .329-.667.658-.333 1.317-1.333 0 1-.329 1-.659 2 .329 0 .329-.333.988-.333-.659.667-.988 1-1.317 1 .329.333.988 0 .988 0-.329 1.333-2.305 2.667-2.963 2zm14.156 12c0-1 1.975-2 3.621-2-.988.333-.658.333-1.317.667.988 0 1.317 0 1.975-.333-.329.333-.658.333-.988.667.988 0 .988.333 1.975 0-.658.667-.658.667-1.646 1 0 .333.329.333.658.333-.658.333-.988.333-1.646 0 0 .333.658.667.658.667-.988.333-3.292 0-3.292-1zm4.28-5.333c.658-.667 2.634.333 3.621 2-.659-.667-.659-.333-.988-.667.329.667.658 1 1.317 1.333-.659 0-.988 0-1.317-.333.329 1 .329 1 .988 1.667-.988 0-.659-.333-1.646-1-.329.333 0 .667 0 1-.329-.667-.658-1-.658-1.333-.329 0-.329.667-.329.667-.988-.667-1.646-3-.988-3.333zm4.28-.667c-.329-.667 1.646-2 3.292-2-.988.333-.329.333-.988.667.658 0 .988 0 1.975-.333-.329.333-.658.667-.988.667.988 0 .988.333 1.975 0-.658 1-.658.667-1.975 1 0 .333.659.333.988.333-.988.333-1.317.333-1.646 0 0 .333.658.667.658.667-1.317.333-3.621 0-3.292-1zm0-3.667c-.329-.667 1.317-2.333 3.292-2.667-.988.333-.658.333-.988 1 .658-.333.988-.333 1.646-1 0 .667-.659.667-.659 1 .659 0 .988.333 1.975-.333-.659 1-.659.667-1.646 1.333 0 .333.329 0 .658.333-.658.333-.988.333-1.317.333 0 .333.659.333.659.333-1.317.667-3.621.667-3.621-.333zM65.515 42c-.658.333-2.304-1.333-2.304-3.333.329 1 .329.667.658 1-.329-.667-.329-1-.658-1.667.329 0 .658.667.988.667-.329-.667 0-1-.329-2 .658.667.658.667.988 2 .329-.333.329-.667.329-1 .329.667.329 1 .329 1.333.329 0 .329-.667.329-.667.658 1.333.658 3.667-.329 3.667zm1.316-4.333c-.988 0-1.975-2-1.975-3.667.329 1 .329.667.658 1 0-.667 0-1-.329-2 .329.333.658.667.658 1 .329-.667.329-.667.329-2 .659.667.329 1 .659 2 .329 0 .329-.333.658-.667 0 .667 0 1-.329 1.333.329 0 .658-.333.658-.333.329 1-.329 3.333-.988 3.333zM62.222 23c-.329-.667 1.646-2.333 3.292-2.333-.988.333-.658.333-.988.667.658 0 .988-.333 1.646-.667 0 .667-.329.667-.659 1 .988 0 .988 0 1.975-.333-.658.667-.658.667-1.646 1 0 .333.329.333.659.333-.659.333-.988.333-1.317.333 0 .333.658.333.658.333-.988 1-3.292.667-3.621-.333z"/><path d="M61.564 29c-.658-.333-.329-2.667.659-4-.329.667 0 .667 0 1.333.329-.667.329-1 .658-2 .329.667 0 1 0 1.333.658-.667.988-.333 1.646-1.333 0 1-.329.667-.658 2 0 0 .329-.333.658-.333-.329.667-.658 1-.988 1 .329.333.988 0 .988 0-.658 1.333-2.305 2.667-2.963 2zm-6.255-4c-.658-.667-.329-3 .988-4-.329.667-.329.667-.329 1 .329-.333.658-.667.988-1.667v1.333c.658-.667.658-.333 1.317-1.333 0 1 0 .667-.659 1.667.329.333.329 0 .988 0-.329.333-.658 1-.988 1 0 .333.659 0 .659 0-.329 1-2.305 2.667-2.963 2zm2.963-7.333c-.658 0-1.975-2-1.646-3.667.329 1 .329.667.658 1 0-.667-.329-1-.658-1.667.658.333.658.667.988 1 0-1 .329-1 0-2.333.658 1 .658 1 .658 2 .329 0 .329-.333.658-.667V15c.329 0 .658-.667.658-.667.329 1.333-.329 3.333-1.317 3.333zM48.395 14c-.988-.333-.329-2.667.658-3.667-.329.667 0 .667-.329 1 .658-.333.658-.667.988-1.667.329.667 0 1 0 1.333.658-.667.988-.667 1.317-1.667.329 1 0 1-.658 2 .329.333.658 0 .988-.333-.329.667-.658 1-.988 1.333.329.333.988 0 .988 0-.658 1-2.304 2.333-2.963 1.667zm-4.28 0c-.988.333-1.975-1.667-1.975-3.333.329.667.329.333.658 1 0-.667 0-1-.329-2 .658.333.658.667.988 1v-2c.658.667.329.667.658 2 .329 0 .329-.333.658-1v1.667l.329-.667c.329 1.333-.329 3.667-.988 3.333zm-3.95-9.667c-.658.667-2.634-.667-3.292-2 .658.667.658.333.988.667-.329-.667-.329-1-.988-1.667.329 0 .658.333.988.333C37.531 1 37.86 1 36.872 0c.988.333.988.333 1.646 1.333.329-.333 0-.667 0-1 .658.667.658 1 .988 1.333.329 0 0-.667 0-.667.988.667 1.646 3 .658 3.333zm-3.951 29c-.658-.667.658-2.667 1.975-3.333-.659.667-.329.333-.659 1 .659-.333.988-.667 1.646-1.333 0 .667-.329 1-.658 1.333.988-.333.988-.333 1.975-1-.329 1-.658.667-1.317 1.667h.988c-.658.333-.988.667-1.317.667 0 .333.658.333.658.333-.658 1-2.963 1.333-3.292.667zM48.395 26c-.658.333-2.304-1.333-2.304-3 .329.667.329.333.658.667 0-.667-.329-1-.658-1.667.658.333.658.667.988.667 0-.667 0-1-.329-2 .988.667.658.667.988 2 .329-.333.329-.667.329-1 .329.667.329 1 .329 1.667.329-.333.329-1 .329-1 .659 1.333.659 3.667-.329 3.667z"/><path d="M47.408 34c-.659.333-2.305-1.667-2.305-3.333.329 1 .329.667.658 1 0-.667-.329-1-.658-1.667.658 0 .658.333.988.667 0-.667 0-1-.329-2 .988.667.658.667.988 1.667.329 0 .329-.333.659-.667 0 .667.329 1 0 1.333.329 0 .658-.667.658-.667.658 1.333.329 3.667-.658 3.667zm-.659-6c-.329.667-2.634.333-3.951-1 .988.333.659 0 1.317.333-.658-.667-.988-.667-1.646-1 .329-.333.988 0 1.317 0-.659-.667-.659-1-1.646-1.333.988 0 .988 0 1.975.667 0-.333 0-.667-.329-1 .658.333.988.667 1.317 1 0-.333-.329-.667-.329-.667 1.317.333 2.634 2.333 1.975 3zm-11.193-4.667c-.658-.667.658-2.667 1.975-3.333-.329.667 0 .667-.329 1l1.317-1.333c0 .667-.329 1-.329 1.333.658-.333.988-.333 1.646-1-.329 1-.329 1-1.317 1.667.329.333.658 0 .988 0-.658.667-.988.667-1.317.667 0 .333.658.333.658.333-.658 1-2.963 1.667-3.292.667zM44.774 19c-.658.667-2.634-.667-3.292-2.333.658.667.658.333.988.667L41.152 16c.659 0 .988.333 1.317.333-.329-.667-.329-1-.988-1.667.988.333.988.333 1.646 1.333.329-.333 0-.667 0-1 .658.667.658 1 .658 1.333.329 0 .329-.667.329-.667.988.667 1.646 3 .658 3.333zm-26.667 9.333c-.658.667-2.963.333-3.951-1 .658.333.658 0 .988.333-.329-.667-.658-.667-1.646-1 .659-.333.988 0 1.317 0-.658-.667-.329-1-1.317-1.333.988-.333.988 0 1.975.667 0-.333-.329-.667-.329-1 .659.333.988.667 1.317 1l-.329-.667c1.317.333 2.634 2.333 1.975 3zm10.864-.666c-.329.667-2.634-.667-3.292-2 .658.667.658 0 .988.667-.329-.667-.329-1-.988-1.667.329 0 .658.333.988.333-.329-.667 0-1-.988-1.667.988.333.988.333 1.646 1.333.329-.333 0-.667 0-1 .659.667.659 1 .988 1.333.329 0 0-.667 0-.667.988.667 1.646 3 .658 3.333zm.659-12c-.658 0-1.646-2-.988-3.667 0 1 0 .333.329 1v-2c.329.333.329 1 .658 1.333 0-1 .329-1 .329-2 .659.667.329.667.329 2 .329 0 .329-.333.659-.667 0 .667 0 1-.329 1.333.329 0 .658-.333.658-.333.329 1.333-.658 3.333-1.646 3zm3.292-3.334c-.658 0-1.646-2.333-1.317-4 .329 1 .329.667.329 1 .329-.667.329-1 0-1.667.658.333.658.667.658 1 .329-1 .658-1 .658-2 .329.667.329 1 .329 2 .329 0 .329-.333.658-.667 0 .667-.329 1-.329 1.667.329 0 .658-.667.658-.667.329 1.333-.658 3.333-1.646 3.333zm1.646 3.334c-.658-.333-.658-2.667.329-4.333-.329 1 0 .667 0 1.333.329-.667.329-1 .658-1.667.329.333 0 .667.329 1.333.329-1 .659-.667.988-2 .329 1 0 1-.329 2.333.329 0 .329-.333.658-.667-.329.667-.329 1.333-.658 1.333.329.333.658 0 .658 0-.329 1.333-1.975 2.667-2.634 2.333z"/></svg>